<svg xmlns="http://www.w3.org/2000/svg" version="1.0" width="630.000000pt" height="134.000000pt" viewBox="0 0 630.000000 134.000000" preserveAspectRatio="xMidYMid meet">

<g transform="translate(0.000000,134.000000) scale(0.100000,-0.100000)" fill="#ffffff" stroke="none">
<path d="M0 1270 l0 -70 756 0 c522 0 769 -3 799 -11 55 -14 109 -70 126 -131 27 -103 -11 -231 -81 -272 -34 -20 -52 -21 -700 -26 l-665 -5 -51 -27 c-54 -29 -112 -87 -140 -140 -37 -71 -44 -127 -44 -360 l0 -228 145 0 145 0 0 223 c0 125 5 239 11 260 14 52 72 114 117 127 23 6 266 10 647 10 637 0 661 2 744 44 54 29 118 101 142 164 17 44 22 78 23 152 0 83 -3 102 -27 155 -49 105 -130 169 -245 194 -37 8 -305 11 -877 11 l-825 0 0 -70z" fill="#ffffff"/>
<path d="M3080 1324 c-104 -28 -182 -92 -222 -181 -30 -67 -38 -182 -38 -533 0 -294 -2 -329 -19 -365 -21 -46 -54 -79 -94 -94 -18 -7 -165 -11 -413 -11 l-384 0 0 -70 0 -70 454 0 c427 0 458 1 519 20 83 26 163 96 198 172 24 52 24 58 29 458 5 389 6 407 27 445 54 102 62 104 521 105 l382 0 0 70 0 70 -452 -1 c-366 0 -464 -3 -508 -15z" fill="#ffffff"/>
<path d="M4320 1270 l0 -70 758 0 c497 0 770 -4 795 -11 21 -5 53 -24 72 -41 94 -81 80 -296 -23 -360 l-37 -23 -782 -3 -783 -2 0 -70 0 -70 758 0 c523 0 769 -4 797 -11 50 -14 101 -67 117 -122 7 -23 12 -80 13 -127 0 -108 -26 -163 -95 -197 l-44 -23 -773 0 -773 0 0 -70 0 -70 838 0 c910 0 893 -1 982 55 54 34 107 100 131 164 17 43 22 78 22 151 -1 114 -24 196 -77 270 -20 27 -36 54 -36 58 0 5 12 19 26 33 65 60 103 199 85 309 -25 156 -119 257 -269 289 -37 8 -305 11 -877 11 l-825 0 0 -70z" fill="#ffffff"/>
</g>
</svg>