<svg xmlns="http://www.w3.org/2000/svg" version="1.0" width="1280.000000pt" height="628.000000pt" viewBox="0 0 1280.000000 628.000000" preserveAspectRatio="xMidYMid meet">

<g transform="translate(0.000000,628.000000) scale(0.100000,-0.100000)" fill="#ffffff" stroke="none">
<path d="M9760 5599 c-181 -9 -369 -37 -528 -79 -713 -190 -1107 -727 -1032 -1405 51 -456 283 -764 740 -984 109 -52 328 -136 335 -129 17 19 485 671 483 672 -2 2 -38 13 -81 25 -151 43 -356 152 -428 228 -48 50 -87 113 -111 182 -25 72 -35 244 -19 323 64 307 416 488 901 464 273 -14 458 -55 635 -140 187 -90 313 -199 467 -404 39 -52 74 -90 78 -85 8 7 388 529 438 599 l22 32 -63 88 c-189 266 -461 436 -857 533 -274 67 -642 98 -980 80z" fill="#ffffff"/>
<path d="M1256 5520 c-72 -22 -130 -116 -152 -249 -18 -105 -58 -192 -95 -205 -31 -10 -71 -2 -92 19 -24 24 -42 145 -28 188 13 40 59 84 97 93 22 6 24 10 24 75 0 65 -1 69 -22 69 -77 0 -154 -53 -195 -134 -54 -104 -38 -326 29 -411 31 -40 93 -65 161 -65 131 0 186 64 232 270 26 119 55 186 82 193 60 16 72 16 96 -4 30 -23 47 -74 47 -139 0 -102 -39 -168 -106 -179 l-39 -6 0 -70 0 -70 40 3 c100 8 170 73 207 195 35 118 9 287 -58 366 -40 48 -163 80 -228 61z" fill="#ffffff"/>
<path d="M2022 5492 c2 -5 777 -1066 1723 -2360 l1720 -2351 514 0 513 -1 -24 32 c-13 18 -790 1080 -1727 2361 l-1703 2327 -510 0 c-280 0 -508 -4 -506 -8z" fill="#ffffff"/>
<path d="M5002 5064 l-313 -435 253 -345 c139 -189 256 -344 259 -344 4 0 251 336 550 748 298 411 553 762 567 780 l24 32 -513 0 -514 -1 -313 -435z" fill="#ffffff"/>
<path d="M7180 3140 l0 -2360 105 0 105 0 0 2360 0 2360 -105 0 -105 0 0 -2360z" fill="#ffffff"/>
<path d="M780 4305 l0 -285 383 2 382 3 3 283 2 282 -65 0 -65 0 0 -205 0 -205 -100 0 -100 0 0 190 0 190 -65 0 -65 0 0 -190 0 -190 -90 0 -90 0 0 205 0 205 -65 0 -65 0 0 -285z" fill="#ffffff"/>
<path d="M780 3595 l0 -75 383 2 382 3 3 73 3 72 -386 0 -385 0 0 -75z" fill="#ffffff"/>
<path d="M10405 3158 c-132 -181 -243 -336 -248 -343 -5 -10 7 -16 50 -25 244 -50 604 -222 733 -351 238 -237 163 -720 -138 -899 -84 -49 -197 -94 -321 -128 -92 -25 -107 -26 -331 -25 -455 2 -701 66 -942 244 -145 108 -317 320 -448 552 -18 32 -36 55 -40 50 -17 -18 -483 -649 -487 -659 -6 -17 87 -169 161 -261 316 -391 824 -604 1514 -632 670 -27 1180 90 1562 358 148 103 315 300 399 469 49 98 98 256 115 373 19 129 23 458 7 547 -41 221 -166 443 -334 597 -188 172 -481 316 -866 424 -79 23 -144 41 -145 40 0 0 -109 -149 -241 -331z" fill="#ffffff"/>
<path d="M1496 3199 c-27 -9 -90 -20 -140 -24 -91 -7 -91 -7 -132 -50 -41 -43 -42 -43 -52 -20 -6 13 -26 34 -44 48 -104 80 -260 48 -321 -66 -21 -39 -22 -56 -25 -274 l-3 -233 390 0 391 0 0 75 0 75 -149 0 -149 0 -4 118 c-7 175 7 191 175 202 53 3 102 11 107 16 6 6 10 41 8 80 l-3 69 -49 -16z m-394 -178 l33 -29 3 -131 4 -131 -115 0 -115 0 -4 113 c-5 132 5 166 53 190 54 26 103 22 141 -12z" fill="#ffffff"/>
<path d="M3112 2479 c-103 -138 -1232 -1691 -1232 -1695 0 -2 229 -4 509 -4 l509 0 382 526 c210 289 379 532 377 538 -5 13 -471 652 -492 675 -11 11 -20 4 -53 -40z" fill="#ffffff"/>
<path d="M780 1985 l0 -285 385 0 385 0 0 285 0 285 -65 0 -65 0 0 -210 0 -210 -100 0 -100 0 0 190 0 190 -65 0 -65 0 0 -190 0 -190 -90 0 -90 0 0 210 0 210 -65 0 -65 0 0 -285z" fill="#ffffff"/>
<path d="M1245 1401 c-78 -36 -122 -112 -155 -271 -12 -58 -30 -121 -40 -140 -42 -82 -134 -78 -166 6 -19 49 -13 127 11 175 18 34 62 69 86 69 17 0 19 8 19 70 0 70 0 70 -27 70 -37 0 -122 -41 -150 -71 -55 -60 -86 -188 -72 -303 12 -101 63 -179 132 -205 67 -26 178 -3 228 45 38 36 74 124 94 224 29 149 74 210 144 195 65 -14 93 -74 80 -170 -15 -109 -58 -165 -128 -165 -19 0 -21 -6 -21 -71 l0 -72 45 6 c96 14 157 64 196 164 32 81 32 233 0 315 -47 121 -169 178 -276 129z" fill="#ffffff"/>
</g>
</svg>